<?xml version="1.0" standalone="no"?>
<!DOCTYPE svg PUBLIC "-//W3C//DTD SVG 20010904//EN"
 "http://www.w3.org/TR/2001/REC-SVG-20010904/DTD/svg10.dtd">
<svg version="1.0" xmlns="http://www.w3.org/2000/svg"
 width="334.000000pt" height="295.000000pt" viewBox="0 0 334.000000 295.000000"
 preserveAspectRatio="xMidYMid meet">

<g transform="translate(0.000000,295.000000) scale(0.100000,-0.100000)"
fill="#000000" stroke="none">
<path d="M1730 2745 c-19 -37 -39 -58 -76 -80 l-50 -30 50 -30 c38 -22 57 -43
77 -82 l27 -52 10 28 c14 40 66 96 109 116 l37 18 -35 17 c-42 22 -83 65 -106
111 l-18 35 -25 -51z"/>
<path d="M2058 2592 c-19 -139 -195 -324 -345 -363 -21 -6 -45 -12 -53 -15 -8
-3 18 -16 58 -30 92 -31 143 -63 212 -134 59 -59 130 -188 130 -234 0 -40 18
-31 31 16 44 167 216 334 372 363 44 9 40 20 -10 30 -154 29 -323 197 -363
363 -13 52 -26 54 -32 4z"/>
<path d="M2339 2544 l-26 -26 29 -28 28 -28 29 28 28 29 -26 25 c-15 14 -29
26 -32 26 -2 0 -16 -12 -30 -26z"/>
<path d="M1400 2504 c-151 -23 -240 -49 -345 -102 -376 -187 -590 -579 -545
-997 43 -405 320 -733 717 -851 120 -36 330 -45 453 -20 183 37 311 98 465
220 l36 29 60 -59 c55 -55 59 -61 59 -106 0 -25 4 -58 9 -71 14 -36 409 -436
453 -458 78 -40 169 -18 221 53 30 41 34 124 9 174 -22 42 -410 433 -452 454
-13 7 -48 13 -76 13 -51 0 -54 2 -113 61 l-60 61 36 55 c104 161 153 320 160
518 6 144 -2 205 -43 339 -37 123 -94 160 -171 113 -45 -27 -53 -76 -25 -155
50 -145 55 -353 12 -490 -72 -226 -226 -400 -443 -500 -100 -46 -196 -65 -322
-65 -611 0 -991 665 -683 1194 45 77 145 187 219 242 67 49 180 102 268 126
58 16 110 21 220 22 143 2 144 2 167 30 17 19 24 39 24 68 0 56 -40 93 -112
101 -55 7 -154 7 -198 1z"/>
<path d="M1303 1838 c-27 -13 -51 -62 -126 -253 -30 -77 -74 -188 -97 -248
-46 -117 -47 -150 -5 -169 18 -8 32 -8 48 -1 23 11 31 24 65 108 l21 50 132 3
c82 2 136 -1 143 -8 5 -5 20 -36 31 -67 27 -71 63 -102 100 -85 49 22 50 48 7
157 -87 221 -173 432 -189 463 -27 53 -81 74 -130 50z m70 -198 c8 -25 27 -76
41 -114 14 -37 26 -75 26 -82 0 -11 -21 -14 -95 -14 -52 0 -95 4 -95 9 0 8 54
168 80 235 13 35 23 27 43 -34z"/>
<path d="M1792 1830 c-22 -21 -22 -25 -22 -325 0 -292 1 -306 20 -325 25 -25
51 -25 81 -1 l24 19 0 307 0 307 -24 19 c-30 24 -52 24 -79 -1z"/>
</g>
</svg>
